<svg xmlns:xlink="http://www.w3.org/1999/xlink" width="28" height="26" viewBox="0 0 24 26" fill="none" xmlns="http://www.w3.org/2000/svg">
                                 <path d="M23.25 6.46152V7.26922C23.25 7.37632 23.2105 7.47904 23.1402 7.55478C23.0698 7.63051 22.9745 7.67306 22.875 7.67306H21.75V8.27883C21.75 8.61337 21.4981 8.8846 21.1875 8.8846H2.8125C2.50186 8.8846 2.25 8.61337 2.25 8.27883V7.67306H1.125C1.02554 7.67306 0.930161 7.63051 0.859835 7.55478C0.789509 7.47904 0.75 7.37632 0.75 7.26922V6.46152C0.750001 6.38163 0.772007 6.30353 0.813234 6.2371C0.854462 6.17068 0.913058 6.11892 0.981609 6.08837L11.8566 1.64606C11.9484 1.60512 12.0516 1.60512 12.1434 1.64606L23.0184 6.08837C23.0869 6.11892 23.1455 6.17068 23.1868 6.2371C23.228 6.30353 23.25 6.38163 23.25 6.46152V6.46152ZM22.125 21.8077H1.875C1.25367 21.8077 0.75 22.3501 0.75 23.0192V23.8269C0.75 23.934 0.789509 24.0367 0.859835 24.1125C0.930161 24.1882 1.02554 24.2308 1.125 24.2308H22.875C22.9745 24.2308 23.0698 24.1882 23.1402 24.1125C23.2105 24.0367 23.25 23.934 23.25 23.8269V23.0192C23.25 22.3501 22.7463 21.8077 22.125 21.8077ZM4.5 9.69229V19.3846H2.8125C2.50186 19.3846 2.25 19.6558 2.25 19.9904V21H21.75V19.9904C21.75 19.6558 21.4981 19.3846 21.1875 19.3846H19.5V9.69229H16.5V19.3846H13.5V9.69229H10.5V19.3846H7.5V9.69229H4.5Z" fill="#FAD263"></path>
                              </svg>