<svg xmlns:xlink="http://www.w3.org/1999/xlink" width="30" height="30" viewBox="0 0 24 20" fill="none" xmlns="http://www.w3.org/2000/svg">
                                 <g clip-path="url(#clip0)" fill="none">
                                    <path d="M23.3379 5.745L12.8777 2.53125C12.3077 2.35612 11.6927 2.35612 11.1231 2.53125L0.662429 5.745C-0.220321 6.01612 -0.220321 7.18349 0.662429 7.45462L2.48605 8.01487C2.08593 8.50949 1.83993 9.11287 1.81555 9.77362C1.45443 9.98062 1.20018 10.3541 1.20018 10.8C1.20018 11.2042 1.41318 11.5444 1.71993 11.7619L0.762554 16.0699C0.679304 16.4445 0.964304 16.8 1.34793 16.8H3.45205C3.83605 16.8 4.12105 16.4445 4.0378 16.0699L3.08043 11.7619C3.38718 11.5444 3.60018 11.2042 3.60018 10.8C3.60018 10.3661 3.35755 10.0031 3.01293 9.79237C3.04143 9.22912 3.32943 8.73112 3.7888 8.41537L11.1227 10.6687C11.4624 10.773 12.1142 10.9031 12.8773 10.6687L23.3379 7.45499C24.2211 7.1835 24.2211 6.0165 23.3379 5.745V5.745ZM13.2298 11.8159C12.1599 12.1444 11.2483 11.9629 10.7702 11.8159L5.33193 10.1452L4.80018 14.4C4.80018 15.7256 8.02368 16.8 12.0002 16.8C15.9767 16.8 19.2002 15.7256 19.2002 14.4L18.6684 10.1449L13.2298 11.8159V11.8159Z" fill="#EF9FC4"></path>
                                 </g>
                                 <defs>
                                    <clipPath id="clip0">
                                       <rect width="24" height="19.2" fill="white"></rect>
                                    </clipPath>
                                 </defs>
                              </svg>