<svg xmlns:xlink="http://www.w3.org/1999/xlink" width="26" height="24" viewBox="0 0 24 20" fill="none" xmlns="http://www.w3.org/2000/svg">
                                 <g clip-path="url(#clip0)" fill="none">
                                    <path d="M0 8.39995V18.5999C0 18.9314 0.2685 19.1999 0.6 19.1999H3.6V7.19994H1.2C0.537375 7.19994 0 7.73732 0 8.39995ZM13.5 6.59994H12.6V5.09994C12.6 4.93419 12.4658 4.79994 12.3 4.79994H11.7C11.5343 4.79994 11.4 4.93419 11.4 5.09994V7.49994C11.4 7.66569 11.5343 7.79995 11.7 7.79995H13.5C13.6658 7.79995 13.8 7.66569 13.8 7.49994V6.89994C13.8 6.73419 13.6658 6.59994 13.5 6.59994ZM18.6656 4.20144L12.6656 0.201317C12.4685 0.0700041 12.2369 -6.10352e-05 12 -6.10352e-05C11.7631 -6.10352e-05 11.5315 0.0700041 11.3344 0.201317L5.33438 4.20144C5.17003 4.31101 5.03527 4.45945 4.94206 4.63358C4.84884 4.80772 4.80004 5.00218 4.8 5.19969V19.1999H9.6V13.7999C9.6 13.4684 9.8685 13.1999 10.2 13.1999H13.8C14.1315 13.1999 14.4 13.4684 14.4 13.7999V19.1999H19.2V5.20007C19.2 4.79882 18.9994 4.42382 18.6656 4.20144ZM12 9.59995C10.3433 9.59995 9 8.2567 9 6.59994C9 4.94319 10.3433 3.59994 12 3.59994C13.6568 3.59994 15 4.94319 15 6.59994C15 8.2567 13.6568 9.59995 12 9.59995ZM22.8 7.19994H20.4V19.1999H23.4C23.7315 19.1999 24 18.9314 24 18.5999V8.39995C24 7.73732 23.4626 7.19994 22.8 7.19994Z" fill="#7FDD85"></path>
                                 </g>
                                 <defs>
                                    <clipPath id="clip1">
                                       <rect width="24" height="19.2" fill="white"></rect>
                                    </clipPath>
                                 </defs>
                              </svg>