<svg xmlns:xlink="http://www.w3.org/1999/xlink" width="60" height="48" viewBox="0 0 60 48" fill="none" xmlns="http://www.w3.org/2000/svg">
                        <path d="M23.9091 24.5297C24.495 25.1156 25.4447 25.1156 26.0306 24.5297L27.0909 23.4694C27.6769 22.8834 27.6769 21.9338 27.0909 21.3478L23.7422 18L27.09 14.6512C27.6759 14.0653 27.6759 13.1156 27.09 12.5297L26.0297 11.4694C25.4437 10.8834 24.4941 10.8834 23.9081 11.4694L18.4387 16.9387C17.8528 17.5247 17.8528 18.4744 18.4387 19.0603L23.9091 24.5297V24.5297ZM32.91 23.4703L33.9703 24.5306C34.5563 25.1166 35.5059 25.1166 36.0919 24.5306L41.5613 19.0613C42.1472 18.4753 42.1472 17.5256 41.5613 16.9397L36.0919 11.4703C35.5059 10.8844 34.5563 10.8844 33.9703 11.4703L32.91 12.5306C32.3241 13.1166 32.3241 14.0662 32.91 14.6522L36.2578 18L32.91 21.3488C32.3241 21.9347 32.3241 22.8844 32.91 23.4703V23.4703ZM58.5 39H35.7694C35.7 40.8572 34.3903 42 32.7 42H27C25.2478 42 23.9044 40.3622 23.9278 39H1.5C0.675 39 0 39.675 0 40.5V42C0 45.3 2.7 48 6 48H54C57.3 48 60 45.3 60 42V40.5C60 39.675 59.325 39 58.5 39ZM54 4.5C54 2.025 51.975 0 49.5 0H10.5C8.025 0 6 2.025 6 4.5V36H54V4.5ZM48 30H12V6H48V30Z" fill="#7FDD85"></path>
                     </svg>