<svg xmlns:xlink="http://www.w3.org/1999/xlink" width="24" height="28" viewBox="0 0 24 28" fill="none" xmlns="http://www.w3.org/2000/svg">
                                 <path d="M17.1107 17.1746L12 22.2853L6.88929 17.1746C3.05893 17.3406 0 20.4746 0 24.3424V24.8567C0 26.2764 1.15179 27.4281 2.57143 27.4281H21.4286C22.8482 27.4281 24 26.2764 24 24.8567V24.3424C24 20.4746 20.9411 17.3406 17.1107 17.1746ZM0.728571 4.27457L1.07143 4.35493V7.4835C0.696429 7.7085 0.428571 8.09957 0.428571 8.571C0.428571 9.021 0.675 9.396 1.02321 9.62636L0.1875 12.9639C0.0964286 13.3335 0.3 13.7139 0.594643 13.7139H2.83393C3.12857 13.7139 3.33214 13.3335 3.24107 12.9639L2.40536 9.62636C2.75357 9.396 3 9.021 3 8.571C3 8.09957 2.73214 7.7085 2.35714 7.4835V4.66564L5.89286 5.51743C5.43214 6.43886 5.14286 7.46743 5.14286 8.571C5.14286 12.3585 8.2125 15.4281 12 15.4281C15.7875 15.4281 18.8571 12.3585 18.8571 8.571C18.8571 7.46743 18.5732 6.43886 18.1071 5.51743L23.2661 4.27457C24.2411 4.03886 24.2411 2.82278 23.2661 2.58707L13.0661 0.122784C12.3696 -0.0432879 11.6357 -0.0432879 10.9393 0.122784L0.728571 2.58171C-0.241071 2.81743 -0.241071 4.03886 0.728571 4.27457Z" fill="#8F93F6"></path>
                              </svg>