<svg xmlns:xlink="http://www.w3.org/1999/xlink" width="48" height="48" viewBox="0 0 48 48" fill="none" xmlns="http://www.w3.org/2000/svg">
                        <path d="M35.3676 11.2517C34.8398 11.2372 34.3256 11.3198 33.8438 11.4898V7.03125C33.8438 4.70503 31.9512 2.8125 29.625 2.8125C29.0759 2.8125 28.5517 2.91909 28.0701 3.11072C27.5821 1.32047 25.9428 0 24 0C22.0572 0 20.4179 1.32047 19.9299 3.11072C19.4483 2.91909 18.9241 2.8125 18.375 2.8125C16.0488 2.8125 14.1562 4.70503 14.1562 7.03125V11.4895C13.6747 11.3198 13.1607 11.2372 12.6324 11.2517C10.3711 11.3136 8.53125 13.2316 8.53125 15.5272V48H36.6562V41.2395L38.5637 36.4704C39.1643 34.9689 39.4688 33.3877 39.4688 31.7705V15.5272C39.4688 13.2316 37.6289 11.3136 35.3676 11.2517V11.2517ZM11.3438 45.1875V42.375H33.8438V45.1875H11.3438ZM36.6562 31.7705C36.6562 33.0283 36.4194 34.2581 35.9523 35.4261L34.2979 39.5625H11.3438V15.5272C11.3438 14.7405 11.9564 14.0837 12.7095 14.0631C13.0926 14.0504 13.4561 14.1937 13.7305 14.4607C14.0051 14.7278 14.1563 15.0858 14.1563 15.4687V21.9843H16.9688V7.03125C16.9688 6.25584 17.5997 5.625 18.3751 5.625C19.1505 5.625 19.7813 6.25584 19.7813 7.03125V21.9844H22.5938V4.21875C22.5938 3.44334 23.2247 2.8125 24.0001 2.8125C24.7755 2.8125 25.4063 3.44334 25.4063 4.21875V21.9844H28.2188V7.03125C28.2188 6.25584 28.8497 5.625 29.6251 5.625C30.4005 5.625 31.0313 6.25584 31.0313 7.03125V24.1714C24.712 24.8732 19.7812 30.2467 19.7812 36.75H22.5938C22.5938 31.3222 27.0097 26.9062 32.4375 26.9062H33.8438V15.4688C33.8438 15.0859 33.995 14.7278 34.2696 14.4608C34.544 14.1938 34.9067 14.0508 35.2906 14.0632C36.0436 14.0838 36.6562 14.7406 36.6562 15.5273V31.7705Z" fill="#FAD263"></path>
                     </svg>